<svg width="24" height="25" viewBox="0 0 24 25" fill="none" xmlns="http://www.w3.org/2000/svg">
<path d="M12 14.5C12.1978 14.5 12.3911 14.4414 12.5556 14.3315C12.72 14.2216 12.8482 14.0654 12.9239 13.8827C12.9996 13.7 13.0194 13.4989 12.9808 13.3049C12.9422 13.1109 12.847 12.9327 12.7071 12.7929C12.5673 12.653 12.3891 12.5578 12.1951 12.5192C12.0011 12.4806 11.8 12.5004 11.6173 12.5761C11.4346 12.6518 11.2784 12.78 11.1685 12.9444C11.0586 13.1089 11 13.3022 11 13.5C11 13.7652 11.1054 14.0196 11.2929 14.2071C11.4804 14.3946 11.7348 14.5 12 14.5ZM17 14.5C17.1978 14.5 17.3911 14.4414 17.5556 14.3315C17.72 14.2216 17.8482 14.0654 17.9239 13.8827C17.9996 13.7 18.0194 13.4989 17.9808 13.3049C17.9422 13.1109 17.847 12.9327 17.7071 12.7929C17.5673 12.653 17.3891 12.5578 17.1951 12.5192C17.0011 12.4806 16.8 12.5004 16.6173 12.5761C16.4346 12.6518 16.2784 12.78 16.1685 12.9444C16.0586 13.1089 16 13.3022 16 13.5C16 13.7652 16.1054 14.0196 16.2929 14.2071C16.4804 14.3946 16.7348 14.5 17 14.5ZM12 18.5C12.1978 18.5 12.3911 18.4414 12.5556 18.3315C12.72 18.2216 12.8482 18.0654 12.9239 17.8827C12.9996 17.7 13.0194 17.4989 12.9808 17.3049C12.9422 17.1109 12.847 16.9327 12.7071 16.7929C12.5673 16.653 12.3891 16.5578 12.1951 16.5192C12.0011 16.4806 11.8 16.5004 11.6173 16.5761C11.4346 16.6518 11.2784 16.78 11.1685 16.9444C11.0586 17.1089 11 17.3022 11 17.5C11 17.7652 11.1054 18.0196 11.2929 18.2071C11.4804 18.3946 11.7348 18.5 12 18.5ZM17 18.5C17.1978 18.5 17.3911 18.4414 17.5556 18.3315C17.72 18.2216 17.8482 18.0654 17.9239 17.8827C17.9996 17.7 18.0194 17.4989 17.9808 17.3049C17.9422 17.1109 17.847 16.9327 17.7071 16.7929C17.5673 16.653 17.3891 16.5578 17.1951 16.5192C17.0011 16.4806 16.8 16.5004 16.6173 16.5761C16.4346 16.6518 16.2784 16.78 16.1685 16.9444C16.0586 17.1089 16 17.3022 16 17.5C16 17.7652 16.1054 18.0196 16.2929 18.2071C16.4804 18.3946 16.7348 18.5 17 18.5ZM7 14.5C7.19778 14.5 7.39112 14.4414 7.55557 14.3315C7.72002 14.2216 7.84819 14.0654 7.92388 13.8827C7.99957 13.7 8.01937 13.4989 7.98079 13.3049C7.9422 13.1109 7.84696 12.9327 7.70711 12.7929C7.56725 12.653 7.38907 12.5578 7.19509 12.5192C7.00111 12.4806 6.80004 12.5004 6.61732 12.5761C6.43459 12.6518 6.27841 12.78 6.16853 12.9444C6.05865 13.1089 6 13.3022 6 13.5C6 13.7652 6.10536 14.0196 6.29289 14.2071C6.48043 14.3946 6.73478 14.5 7 14.5ZM19 4.5H18V3.5C18 3.23478 17.8946 2.98043 17.7071 2.79289C17.5196 2.60536 17.2652 2.5 17 2.5C16.7348 2.5 16.4804 2.60536 16.2929 2.79289C16.1054 2.98043 16 3.23478 16 3.5V4.5H8V3.5C8 3.23478 7.89464 2.98043 7.70711 2.79289C7.51957 2.60536 7.26522 2.5 7 2.5C6.73478 2.5 6.48043 2.60536 6.29289 2.79289C6.10536 2.98043 6 3.23478 6 3.5V4.5H5C4.20435 4.5 3.44129 4.81607 2.87868 5.37868C2.31607 5.94129 2 6.70435 2 7.5V19.5C2 20.2956 2.31607 21.0587 2.87868 21.6213C3.44129 22.1839 4.20435 22.5 5 22.5H19C19.7956 22.5 20.5587 22.1839 21.1213 21.6213C21.6839 21.0587 22 20.2956 22 19.5V7.5C22 6.70435 21.6839 5.94129 21.1213 5.37868C20.5587 4.81607 19.7956 4.5 19 4.5ZM20 19.5C20 19.7652 19.8946 20.0196 19.7071 20.2071C19.5196 20.3946 19.2652 20.5 19 20.5H5C4.73478 20.5 4.48043 20.3946 4.29289 20.2071C4.10536 20.0196 4 19.7652 4 19.5V10.5H20V19.5ZM20 8.5H4V7.5C4 7.23478 4.10536 6.98043 4.29289 6.79289C4.48043 6.60536 4.73478 6.5 5 6.5H19C19.2652 6.5 19.5196 6.60536 19.7071 6.79289C19.8946 6.98043 20 7.23478 20 7.5V8.5ZM7 18.5C7.19778 18.5 7.39112 18.4414 7.55557 18.3315C7.72002 18.2216 7.84819 18.0654 7.92388 17.8827C7.99957 17.7 8.01937 17.4989 7.98079 17.3049C7.9422 17.1109 7.84696 16.9327 7.70711 16.7929C7.56725 16.653 7.38907 16.5578 7.19509 16.5192C7.00111 16.4806 6.80004 16.5004 6.61732 16.5761C6.43459 16.6518 6.27841 16.78 6.16853 16.9444C6.05865 17.1089 6 17.3022 6 17.5C6 17.7652 6.10536 18.0196 6.29289 18.2071C6.48043 18.3946 6.73478 18.5 7 18.5Z" fill="#D0695A"/>
</svg>
