<svg xmlns="http://www.w3.org/2000/svg" width="116" height="100" fill="none" viewBox="0 0 116 100">
  <g clip-path="url(#a)">
    <path fill="#FF4164" d="m36.346 52.671-.912-3.59h.492l.428 1.815c.105.452.202.895.266 1.242h.009c.056-.355.169-.782.29-1.25l.476-1.816h.484l.436 1.824c.105.428.194.855.25 1.234h.008c.073-.395.178-.79.29-1.242l.477-1.816h.476l-1.017 3.591h-.484l-.452-1.872a10.81 10.81 0 0 1-.234-1.17h-.008c-.065.355-.145.71-.274 1.17l-.509 1.872h-.484l-.008.008Zm9.668-1.831c0 1.234-.75 1.896-1.67 1.896-.92 0-1.615-.735-1.615-1.824 0-1.138.71-1.888 1.67-1.888s1.615.75 1.615 1.815Zm-2.793.056c0 .766.42 1.452 1.146 1.452.727 0 1.154-.678 1.154-1.493 0-.718-.37-1.46-1.146-1.46-.774 0-1.154.71-1.154 1.5Zm6.069-1.767c.234-.049.573-.073.888-.073.492 0 .815.089 1.04.29a.91.91 0 0 1 .283.686c0 .476-.299.791-.678.92v.016c.274.097.444.355.525.727.12.5.201.847.274.984h-.476c-.057-.105-.137-.411-.242-.855-.105-.492-.299-.686-.718-.702h-.436v1.557h-.468v-3.543l.008-.008Zm.468 1.638h.476c.492 0 .807-.275.807-.686 0-.46-.339-.67-.823-.67-.226 0-.388.024-.46.04v1.316Zm5.068-1.687h.468v1.735h.016c.097-.137.194-.266.282-.387l1.098-1.348h.573l-1.3 1.525 1.405 2.066h-.55l-1.185-1.767-.34.395v1.372h-.467v-3.59Zm5.495 3.026c.21.13.509.234.831.234.477 0 .75-.25.75-.613 0-.339-.193-.525-.677-.718-.59-.21-.952-.509-.952-1.017 0-.557.46-.976 1.162-.976.371 0 .637.088.79.177l-.129.38a1.437 1.437 0 0 0-.685-.17c-.493 0-.678.29-.678.54 0 .34.218.5.718.695.605.233.92.524.92 1.057 0 .556-.412 1.033-1.259 1.033-.347 0-.726-.105-.92-.226l.121-.388.008-.008Zm5.826-3.026v1.501h1.735v-1.5h.469v3.59h-.469v-1.687h-1.735v1.687h-.468v-3.59h.468Zm8.756 1.76c0 1.234-.75 1.896-1.67 1.896-.92 0-1.614-.735-1.614-1.824 0-1.138.71-1.888 1.67-1.888s1.614.75 1.614 1.815Zm-2.792.056c0 .766.42 1.452 1.146 1.452s1.154-.678 1.154-1.493c0-.718-.371-1.46-1.146-1.46-.775 0-1.154.71-1.154 1.5Zm6.069-1.776a5.02 5.02 0 0 1 .887-.072c.46 0 .791.105 1.009.298.194.17.315.436.315.75 0 .316-.097.582-.275.768-.242.258-.645.395-1.097.395-.138 0-.267 0-.372-.032v1.436h-.468v-3.55.007Zm.467 1.735c.105.025.227.04.388.04.557 0 .904-.274.904-.766s-.34-.702-.848-.702a1.75 1.75 0 0 0-.435.04v1.397l-.009-.009ZM4.672 99.524C1.492 99.524 0 97.627 0 94.262V78.801c0-3.414 1.614-5.262 4.697-5.262 2.776 0 4.317 1.445 4.6 4.293h.475c.59-2.824 2.349-4.454 4.858-4.454 1.235 0 2.203.38 2.897 1.09.662.71 1.017 1.734 1.017 3.01 0 1.274-.33 2.154-.992 2.8-.662.613-1.687.952-3.035 1.016-3.316.17-4.882 1.994-4.882 5.359v7.61c0 3.364-1.775 5.26-4.955 5.26h-.008ZM43.39 85.507v1.71c0 8.159-5.002 12.783-12.975 12.783s-13.04-4.624-13.04-12.734v-1.687c0-7.706 5.027-12.572 13.04-12.572 8.013 0 12.976 4.858 12.976 12.5Zm-16.034-.186v2.349c0 3.486 1.09 5.406 3.035 5.406 1.944 0 3.01-1.92 3.01-5.406v-2.35c0-3.559-1.017-5.382-3.01-5.382-1.994 0-3.035 1.823-3.035 5.382Zm19.634 5.875c.993 0 1.824.282 3.317.904 2.3.952 3.486 1.307 4.793 1.307 1.614 0 2.534-.549 2.534-1.469s-.904-1.59-3.317-2.09l-2.824-.573c-5.221-1.04-7.521-3.486-7.521-7.545 0-5.221 4.672-8.723 11.854-8.723 2.3 0 4.527.355 6.383 1.065 2.325.904 3.584 2.324 3.584 4.124 0 1.8-1.372 2.961-3.341 2.961-.783 0-1.824-.21-3.277-.734-2.041-.734-3.058-.928-3.89-.928-1.347 0-2.154.758-2.154 1.662 0 .904.686 1.332 2.348 1.638l4.342.807c4.72.88 6.972 3.365 6.972 7.449 0 5.576-4.479 8.94-12.21 8.94-3.082 0-5.737-.524-7.658-1.444-2.114-1.016-3.252-2.493-3.252-4.268 0-1.776 1.348-3.083 3.317-3.083Zm28.6 8.328c-5.004 0-8.393-3.107-8.393-7.683 0-4.841 3.68-7.779 9.748-7.803h5.027v-1.493c0-1.517-1.09-2.372-2.848-2.372-1.566 0-2.776.686-4.035 1.258-.904.404-1.824.735-3.252.735-2.042 0-3.252-1.356-3.252-3.131 0-1.614 1.089-3.276 3.655-4.366 1.8-.807 4.293-1.307 7.521-1.307 7.521 0 11.83 3.438 11.83 9.345v11.79c0 3.276-1.686 5.027-4.672 5.027-2.373 0-4.06-1.138-4.503-3.228h-.476c-.993 1.993-3.413 3.228-6.359 3.228h.008Zm3.606-6.238c1.542 0 2.776-.993 2.776-2.227v-2.276h-2.47c-1.75 0-2.92.904-2.92 2.251 0 1.348 1.113 2.252 2.606 2.252h.008Zm16.826-2.09c.992 0 1.823.282 3.324.904 2.3.952 3.486 1.307 4.794 1.307 1.614 0 2.534-.549 2.534-1.469s-.904-1.59-3.325-2.09l-2.824-.573c-5.214-1.04-7.522-3.486-7.522-7.545 0-5.221 4.673-8.723 11.855-8.723 2.3 0 4.527.355 6.383 1.065 2.324.904 3.583 2.324 3.583 4.124 0 1.8-1.38 2.961-3.341 2.961-.783 0-1.824-.21-3.276-.734-2.042-.734-3.059-.928-3.89-.928-1.347 0-2.154.758-2.154 1.662 0 .904.686 1.332 2.348 1.638l4.341.807c4.721.88 6.973 3.365 6.973 7.449 0 5.576-4.479 8.94-12.218 8.94-3.082 0-5.737-.524-7.658-1.444-2.114-1.016-3.252-2.493-3.252-4.268 0-1.776 1.347-3.083 3.317-3.083h.008ZM48.62 40.865s0 .048.024.08a.099.099 0 0 1-.032-.072h-.008s.008-.008.016-.008Zm.59-.225s.048-.057.096-.041c-.032.016-.064.024-.097.04Zm-.937.346v.074l-.662.21s0-.025-.016-.033c-.008-.016-.024-.016-.016-.032l.686-.218h.008Z"/>
    <path fill="#FF4164" d="m48.644 40.946-.363.113s-.008-.024-.008-.033v-.04c.113-.032.218-.08.339-.113h-.008s.008-.008.016-.008c0 .024 0 .048.024.08Zm-1.259.323s.017.048.009.072l-.218.073-.025-.073.218-.072s0-.008.008 0h.008Z"/>
    <path fill="#FF4164" d="M47.377 41.26h.008a.078.078 0 0 1 .009.073l-.025-.072h.008Zm.218-.056v.04s-.008-.016 0-.032v-.008ZM27.203 30.003c.016.089.049.17.065.259-.025-.073-.057-.13-.073-.202a.088.088 0 0 0-.024-.057v-.016c0-.024-.016-.048-.032-.064.024.016.032.04.048.064.008 0 .016.008.024.016h-.008Zm-.048-10.829c.04-.065.104-.081.177-.073l-.177.073Zm2.969 9.336s-.032-.04-.04-.064a2.16 2.16 0 0 1-.065-.089c0-.056-.008-.113-.008-.178.024.057.04.113.065.17.016.048.032.105.048.161Z"/>
    <path fill="#FF4164" d="M49.92 36.08c-.743.508-1.542.936-2.406 1.267a.514.514 0 0 1-.282.113h-.016l-1.009.314s-.048.057-.064.081c-.033-.016-.065-.016-.097-.024-.218.04-.428.089-.646.145-.024.008-.048.008-.064.008a.427.427 0 0 1-.202.032c-2.8.436-5.495-.056-8.142-1.492-.428-5.803.928-10.935 3.913-15.478a27.064 27.064 0 0 1 5.762-6.319l.137-.557c.38-1.565.759-3.147 1.154-4.745-.379.218-.766.444-1.154.67-2.751-2.235-5.842-3.59-9.231-3.986a1.725 1.725 0 0 0-1.388.436c-2.526 2.275-4.27 5.148-5.254 8.57-1.202.08-2.372.17-3.55.25-.057.024-.122.048-.178.024-.274.032-.549.073-.823.113-.057.032-.121.048-.186.024-.12.024-.226.04-.347.065-.016 0-.024 0-.04.008a.334.334 0 0 1-.153.016l-.606.121s-.048.008-.08.016c-1.267.178-2.05.896-1.598 2.389 1.202 3.938 2.493 7.844 3.76 11.774.017.008.025.016.025.032.016.008.016.016.024.024h.008l.016.024c.024.089.049.178.073.258.056.154.12.299.185.444a.401.401 0 0 1 .081.17l.048.096c.13.267.242.55.38.816 1.638 3.139 3.897 5.624 6.746 7.432 3.72 2.348 7.634 3.115 11.717 2.284h.024c.073-.017.154-.04.226-.04h.025c.153-.033.306-.073.452-.106l.217-.072h.008s.009-.008.009 0c.016.016.016.048.008.072l.225-.072s0-.025-.016-.025c-.016-.016-.024-.024-.016-.04l.678-.218c.113-.032.218-.08.339-.113h-.008s.008-.008.016-.008c.202-.072.387-.145.573-.21.008 0 .008-.008.016-.016.024-.024.049-.056.097-.04.153-.073.307-.137.46-.202.032-.048.073-.056.113-.072l.113-.057c.186-.097.38-.178.557-.283a15.269 15.269 0 0 0 1.759-1.137 18.404 18.404 0 0 1-2.389-2.768v-.008ZM37.88 9.918a.339.339 0 0 1 .233-.073c2.082.355 4.027 1.17 5.875 2.437-1.436 1.235-2.76 2.542-3.97 4.003a34.61 34.61 0 0 0-5.536-.977c.775-2.114 1.904-3.897 3.397-5.39Zm-4.342 23.934c-1.533-1.573-2.623-3.348-3.414-5.342-.016-.024-.032-.04-.04-.064-.024-.033-.049-.065-.065-.089 0-.056-.008-.113-.008-.177l-2.856-9.006c.04-.065.104-.081.177-.073 3.414-.468 6.851-.323 10.37.33-2.704 4.278-4.084 9.047-4.164 14.421Z"/>
    <path fill="#FF4164" d="M46.11 37.799s.057-.008.09-.025a.57.57 0 0 0-.065.081c-.033-.016-.065-.016-.097-.024a.285.285 0 0 1 .072-.032Zm1.114-.339c.089-.04.186-.073.283-.105a.572.572 0 0 1-.283.105Zm-20.021-7.457c.016.089.049.17.065.259-.04-.09-.09-.178-.122-.267 0-.008.009-.008.017-.016.008-.008.016 0 .016 0 .008 0 .016.008.024.016v.008ZM25.84 15.59c-.065 0-.13.017-.194.025.064 0 .129-.016.193-.024Z"/>
    <path fill="#FF4164" d="M27.203 30.003h-.056a.286.286 0 0 0-.017-.08c.025.016.033.04.049.064.008 0 .016.008.024.016Zm21.998 10.644.113-.048c-.04.016-.072.032-.113.048Zm-3.091-2.848s.057-.008.09-.025c-.025.017-.05.025-.065.04l-.017.009s-.048.008-.08.008a.285.285 0 0 1 .072-.032Zm1.114-.339c.089-.04.186-.073.283-.105a.572.572 0 0 1-.283.105ZM27.155 19.174c.04-.065.104-.081.177-.073l-.177.073Zm2.969 9.336s-.032-.04-.04-.064-.016-.04-.024-.065v-.024c-.024-.065-.049-.113-.049-.178.024.057.04.113.065.17.016.048.032.105.048.161Z"/>
    <path fill="#FF4164" d="M30.076 28.349s-.008.024-.016.032c-.016 0-.024 0-.04-.024 0-.056-.009-.113-.009-.178.024.057.04.113.065.17Z"/>
    <path fill="#FF4164" d="M30.124 28.51s-.032-.04-.04-.064a2.16 2.16 0 0 1-.065-.089c.008 0 .025-.008.033 0h.024s.032.097.048.153Zm16.019 9.32-.008.025c-.033-.016-.065-.016-.097-.024.024-.016.048-.024.072-.032.008 0 .017.008.025.016 0 0 .008.008.008.016Z"/>
    <path fill="#FF4164" d="M46.2 37.774s-.05.057-.065.081c-.008-.016-.017-.024-.017-.032v-.024s.049-.008.081-.025Zm16.22 4.616h.015a.145.145 0 0 0-.024.089.1.1 0 0 1 .008-.097v.008Zm.855.154s-.073-.008-.105-.016c.032-.009.072-.025.105.016ZM84.853 28.6c0-.074.024-.146.08-.21-.031.072-.048.145-.08.21Zm.67-1.768s-.057 0-.08-.008V26.8h.007s.049.008.073.032ZM62 42.301s0 .025-.017.04c-.008 0-.016.025-.016.033l-.79-.202v-.04c0-.024-.008-.032 0-.048l.823.21v.008Z"/>
    <path fill="#FF4164" d="m85.692 26.146-.17.686s-.056 0-.08-.008V26.8c-.129-.267-.072-.493.178-.662.032 0 .056.008.072.008ZM62.435 42.398s-.024.049-.024.09l-.444-.114s0-.024.017-.032v-.048H62c.145.04.274.064.42.096h.015v.008Zm-1.501-.363s-.016.057-.04.08l-.266-.064.024-.08.266.064h.016Z"/>
    <path fill="#FF4164" d="M60.934 42.019s.009 0 0 .008c0 .032-.016.057-.04.08l.024-.08h.008l.008-.008Zm.251.073v.048s-.025-.032-.008-.048h.008Zm-13.63-23.959c-.032.097-.057.201-.089.298.024-.08.024-.17.057-.25 0-.016.008-.048.008-.073 0 0 .008 0 0-.016 0-.024.016-.056 0-.088a.396.396 0 0 1 .008.096c0 .008.008.025.008.033h.008Zm3.865.097c.033-.065.065-.122.097-.194-.008.08-.032.153-.04.218-.016.064-.04.129-.057.193v-.217Zm3.018-11.016c-.08-.008-.145-.024-.218-.032.081-.04.154-.016.218.032Z"/>
    <path fill="#FF4164" d="M88.92 12.88c.081-1.59-.734-2.252-2.058-2.373-.104.024-.21-.024-.322-.032-.38-.04-.759-.09-1.138-.121a.36.36 0 0 1-.226-.017l-5.496-.145C78.284 6.238 76 2.954 72.83.452c-.501-.387-1.034-.525-1.671-.42-3.954.727-7.497 2.542-10.612 5.383-1.267-.654-2.51-1.3-3.744-1.945a.29.29 0 0 1-.194-.089 30.606 30.606 0 0 0-.904-.395c-.08-.008-.153-.024-.201-.089a12.16 12.16 0 0 1-.396-.153c-.08-.008-.129-.049-.202-.089h-.008c-.218-.089-.444-.17-.678-.258-.024-.016-.056-.024-.088-.033-1.396-.605-2.631-.363-3.107 1.42-1.227 4.722-2.34 9.466-3.494 14.22v.024s.008.04.008.072c.008.017.016.025.008.033-.032.105-.057.201-.089.298-.032.194-.056.38-.089.565.016.089-.008.162-.024.226 0 .032-.008.08-.008.121-.04.355-.097.71-.121 1.057-.299 4.189.444 8.102 2.203 11.693 2.292 4.68 5.778 7.884 10.41 9.58.024.007.056.015.08.023h.009c.072.025.153.04.218.089.169.057.347.113.516.178l.266.064h.008v.008c0 .024-.016.049-.04.073l.274.073s.009-.033 0-.04c0-.025-.008-.033.009-.05l.806.202h.008c.146.04.275.065.42.097h.016c.242.049.476.089.71.138l.017-.009h.008s.04-.016.056-.008c.008 0 .016.008.024.017 0 0 .008.008.017.008h.024c.193.016.395.048.589.072.056-.024.105-.008.153 0l.162.016c.233.016.484.049.726.065 5.132.218 9.764-1.51 13.864-5.165 2.72-2.413 4.72-5.43 6.068-8.941 0-.032.008-.073.016-.105l.049-.073s.008 0 .008-.008l.008-.016v-.024c.072-.234.153-.452.234-.678.024-.064.048-.12.064-.202.073-.21.138-.443.202-.67v-.024c-.13-.266-.073-.492.177-.661.033 0 .057.008.073.008l3.3-13.243s-.056 0-.072-.024l.024.016ZM70.788 4.486a.395.395 0 0 1 .282.072c1.88 1.655 3.333 3.68 4.414 6.11-2.21.354-4.358.846-6.488 1.573a41.44 41.44 0 0 0-4.979-4.422c2.098-1.647 4.334-2.744 6.77-3.333ZM51.42 18.447v-.217c.032-.065.065-.122.097-.194L54.22 7.182c.081-.04.154-.016.218.032h.008c3.745 1.647 7.118 3.922 10.265 6.77-5.382 2.648-9.732 6.594-13.154 11.968-.573-2.542-.573-5.003-.137-7.505Zm33.022-3.712c-.912 3.616-1.808 7.223-2.72 10.838a.695.695 0 0 1-.08.307c-2.55 8.368-10.427 13.702-18.15 12.282-.128.016-.25-.032-.37-.081l-1.22-.307s-.072.025-.104.033h-.008s-.049-.057-.08-.081c-.251-.089-.493-.17-.743-.258-.024 0-.049-.016-.073-.025a.507.507 0 0 1-.226-.096c-3.09-1.3-5.511-3.462-7.287-6.561 3.163-6.117 7.715-10.458 13.55-13.194 5.656-2.655 11.515-3.405 17.478-2.97.024.025.049.057.033.105v.008Z"/>
    <path fill="#FF4164" d="M61.903 37.774s-.073.025-.105.033h-.008s-.049-.057-.08-.081c.031 0 .056.008.096.016.032.008.056.024.097.032Zm-.969 4.261h-.016l.008-.008s.008 0 0 .008h.008Zm1.501.363h-.016v-.016s.008 0 .016.016Zm23.193-16.26c-.065.218-.121.452-.178.67v.016s-.008-.008-.008-.025c-.129-.266-.072-.5.186-.67v.009Zm-38.073-8.005c-.032.097-.057.201-.089.298.008-.113.024-.226.04-.339h.025c.008 0 .016 0 .016.017 0 .008.008.024.008.032v-.008Zm37.847-7.788a1.97 1.97 0 0 1-.218-.016c.073 0 .145.008.218.016Z"/>
    <path fill="#FF4164" d="M85.402 10.345a1.97 1.97 0 0 1-.218-.016c.073 0 .145.008.218.016Zm-37.847 7.788s-.024-.016-.032-.024c-.009 0-.017-.017-.025-.017 0-.024.025-.064.033-.088a.396.396 0 0 1 .008.096c0 .008.008.025.008.033h.008Zm15.591 24.402c.048 0 .096.009.145.017a.885.885 0 0 1-.145-.017Zm-1.243-4.761s-.065-.008-.089-.008h-.016s-.057-.024-.089-.04c.032 0 .057.008.097.016.032.008.056.024.097.032ZM51.444 18.246c.025-.073.04-.137.073-.21-.008.08-.032.153-.04.218-.016.064-.04.129-.057.193v-.032c0-.056.008-.097.024-.145v-.024Zm2.994-11.032c-.08-.008-.145-.024-.218-.032.081-.04.154-.016.218.032Z"/>
    <path fill="#FF4164" d="M51.517 18.036c-.008.08-.032.153-.04.218-.016.016-.024.024-.032.016-.025 0-.025-.016-.025-.04.033-.065.065-.122.097-.194Z"/>
    <path fill="#FF4164" d="M51.477 18.254c-.016.064-.04.129-.057.193v-.217s.024.008.024.016h.033v.008Zm32.965-3.519s-.025-.072-.033-.113c.008.04.024.073.033.113ZM61.814 37.766v.025s-.008.016-.016.016h-.008s-.049-.057-.08-.081c.031 0 .056.008.096.016 0 .008.008.016.008.024Z"/>
    <path fill="#FF4164" d="M61.903 37.774s-.073.025-.105.033h-.008s0-.033.008-.04v-.025a.9.9 0 0 0 .105.032ZM31.52 69.157h-.234c0 1.389-.952 2.155-2.38 2.155-1.558 0-2.405-.92-2.405-2.614V56.762c0-1.694.847-2.614 2.389-2.614 1.54 0 2.388.92 2.388 2.614v3.68h.234c.444-1.299 1.84-2.122 3.583-2.122 2.825 0 4.463 2.179 4.463 5.971v1.025c0 3.817-1.638 5.996-4.503 5.996-1.743 0-3.099-.823-3.55-2.154h.015Zm1.437-1.452c1.04 0 1.646-.904 1.646-2.502v-.774c0-1.582-.613-2.518-1.646-2.518s-1.67.944-1.67 2.518v.774c0 1.582.62 2.502 1.67 2.502Zm7.876-3.389c0-3.76 2.485-6.19 6.327-6.19 3.55 0 6.068 2.43 6.068 5.6 0 1.493-.662 2.099-2.284 2.099h-5.229v.355c.032 1.105.863 1.912 2.284 1.912.839 0 1.331-.145 1.719-.314.54-.25.863-.541 1.581-.541.953 0 1.558.581 1.558 1.541 0 .848-.533 1.517-1.46 2.018-.905.484-2.204.75-3.745.75-4.22 0-6.811-2.3-6.811-6.165v-1.057l-.008-.008Zm7.94-.969v-.024c0-1.049-.597-1.76-1.509-1.76-1.016 0-1.557.711-1.557 1.76v.024h3.066Zm6.287 5.343V56.753c0-1.694.839-2.614 2.388-2.614 1.55 0 2.389.92 2.389 2.614V68.69c0 1.695-.84 2.615-2.389 2.615s-2.388-.92-2.388-2.615Zm10.773 2.614c-2.486 0-4.172-1.541-4.172-3.817 0-2.405 1.823-3.865 4.842-3.873h2.501v-.743c0-.75-.54-1.178-1.412-1.178-.775 0-1.38.339-2.001.621-.444.202-.904.364-1.614.364-1.017 0-1.614-.67-1.614-1.558 0-.799.54-1.63 1.816-2.17.895-.404 2.13-.646 3.736-.646 3.736 0 5.883 1.71 5.883 4.64v5.858c0 1.63-.84 2.502-2.325 2.502-1.178 0-2.017-.565-2.235-1.606h-.234c-.492.993-1.694 1.606-3.155 1.606h-.016Zm1.791-3.099c.767 0 1.38-.492 1.38-1.105v-1.13h-1.226c-.872 0-1.453.444-1.453 1.122 0 .678.557 1.121 1.3 1.121v-.008Zm9.45-1.033c.492 0 .904.146 1.646.444 1.146.468 1.735.646 2.38.646.8 0 1.26-.275 1.26-.735 0-.46-.444-.79-1.647-1.04l-1.404-.283c-2.59-.516-3.736-1.735-3.736-3.744 0-2.59 2.324-4.334 5.89-4.334 1.147 0 2.252.178 3.172.533 1.154.444 1.784 1.154 1.784 2.05 0 .895-.686 1.476-1.663 1.476-.387 0-.903-.105-1.63-.363-1.017-.363-1.517-.46-1.937-.46-.67 0-1.073.38-1.073.823 0 .444.34.662 1.17.815l2.155.404c2.348.436 3.462 1.67 3.462 3.704 0 2.768-2.227 4.438-6.069 4.438-1.533 0-2.848-.258-3.809-.718-1.049-.508-1.613-1.235-1.613-2.122 0-.888.67-1.534 1.646-1.534h.016Z"/>
  </g>
  <defs>
    <clipPath id="a">
      <path fill="#fff" d="M0 0h115.825v100H0z"/>
    </clipPath>
  </defs>
</svg>
